<svg xmlns="http://www.w3.org/2000/svg" width="22.926" height="21.311" viewBox="0 0 22.926 21.311">
  <path id="icon" d="M10.369,19.311c-1.957,0-4.481-.141-5.156-.539-.853-1.734-2.246-8.474-2.26-8.542a10.405,10.405,0,0,0-1.641.538,1,1,0,0,1-.538.159A.757.757,0,0,1,.18,10.67a.987.987,0,0,1-.156-.825c.049-.668,2.583-3.229,4.937-5.4C7.293,2.288,10.013,0,10.461,0c.431,0,3.016,2.2,5.348,4.366C17.989,6.4,20.631,9.036,20.9,9.8a.942.942,0,0,1-.17.794.976.976,0,0,1-.757.323,1.012,1.012,0,0,1-.548-.151,12.713,12.713,0,0,0-1.368-.559l0,.022c-.145.79-1.448,7.742-2.53,8.54C14.85,19.169,12.326,19.311,10.369,19.311Zm.092-12.87a2.248,2.248,0,1,0,2.248,2.247A2.25,2.25,0,0,0,10.461,6.44Z" transform="translate(1.002 1)" fill="none" stroke="#667580" stroke-miterlimit="10" stroke-width="2"/>
</svg>
