<svg xmlns="http://www.w3.org/2000/svg" width="20.221" height="16.433" viewBox="0 0 20.221 16.433">
  <path id="Logo_Twitter" data-name="Logo Twitter" d="M0,14.569a8.439,8.439,0,0,0,.99.058,8.324,8.324,0,0,0,5.152-1.776A4.153,4.153,0,0,1,2.267,9.97,4.159,4.159,0,0,0,4.14,9.9,4.151,4.151,0,0,1,.812,5.831c0-.017,0-.035,0-.052A4.132,4.132,0,0,0,2.692,6.3,4.153,4.153,0,0,1,1.408.759,11.778,11.778,0,0,0,9.959,5.094,4.151,4.151,0,0,1,17.028,1.31,8.308,8.308,0,0,0,19.662.3a4.161,4.161,0,0,1-1.824,2.3,8.3,8.3,0,0,0,2.383-.653,8.432,8.432,0,0,1-2.07,2.148q.012.267.012.537a11.723,11.723,0,0,1-11.8,11.8A11.743,11.743,0,0,1,0,14.569Z" fill="#55acee"/>
</svg>
