<svg xmlns="http://www.w3.org/2000/svg" width="14.018" height="15.32" viewBox="0 0 14.018 15.32">
  <path id="icon" d="M2.7,14.642.675,12.62a2.3,2.3,0,0,1,0-3.259L1.94,8.1,3.354,9.51,2.089,10.775A.31.31,0,0,0,2,10.991a.3.3,0,0,0,.089.215l2.023,2.022a.266.266,0,0,0,.445,0L8.831,8.955a.275.275,0,0,0,0-.387L6.711,6.449,8.125,5.035l2.12,2.119a2.273,2.273,0,0,1,0,3.214L5.972,14.642a2.316,2.316,0,0,1-3.274,0Zm1.075-6.5a2.274,2.274,0,0,1,0-3.215L8.047.656a2.37,2.37,0,0,1,3.274,0l2.022,2.022a2.3,2.3,0,0,1,0,3.259L12.078,7.2,10.664,5.789l1.264-1.265a.293.293,0,0,0,.089-.215.3.3,0,0,0-.089-.216L9.906,2.07a.267.267,0,0,0-.446,0L5.187,6.343a.275.275,0,0,0,0,.387L7.307,8.852,5.893,10.265Z" fill="#657786"/>
</svg>
